<svg width="32" height="32" xmlns="http://www.w3.org/2000/svg">
<g fill="none" fill-rule="evenodd">
<path d="M32 28a2 2 0 01-2 2H12a2 2 0 01-2-2h22zm-4-16a3 3 0 013 3v12H11V15a3 3 0 013-3h14zm-1.776 8.664H16.037a.8.8 0 00-.63 1.295l.08.087 2.95 2.78a.8.8 0 001.343-.481l.006-.1v-1.228a.8.8 0 01.7-.794l.1-.006h5.638a.776.776 0 000-1.553zM25 2a4 4 0 014 4v4h-3V7a2 2 0 00-2-2H5a2 2 0 00-1.995 1.85L3 7v11a2 2 0 001.85 1.995L5 20h4v4H4a4 4 0 01-4-4V6a4 4 0 014-4h21zm-1.965 11.956a.8.8 0 00-.793.7l-.007.1v1.227a.8.8 0 01-.7.794l-.1.006h-5.659a.776.776 0 00-.105 1.546l.105.007h10.209a.8.8 0 00.629-1.295l-.08-.087-2.95-2.78a.8.8 0 00-.549-.218z" fill="#000" fill-opacity=".3"/>
</g></svg>
